<svg width="21.000000" height="18.740723" viewBox="0 0 21 18.7407" fill="none" xmlns="http://www.w3.org/2000/svg" xmlns:xlink="http://www.w3.org/1999/xlink">
	<desc>
			Created with Pixso.
	</desc>
	<defs/>
	<path id="Vector" d="M10.5 10.87C10.1 10.87 9.72 10.71 9.43 10.43C9.15 10.14 9 9.76 9 9.37C9 8.97 9.15 8.59 9.43 8.3C9.72 8.02 10.1 7.87 10.5 7.87C10.89 7.87 11.27 8.02 11.56 8.3C11.84 8.59 12 8.97 12 9.37C12 9.76 11.84 10.14 11.56 10.43C11.27 10.71 10.89 10.87 10.5 10.87ZM9.97 13.86C10.14 14.07 10.32 14.27 10.5 14.47C10.67 14.27 10.85 14.07 11.02 13.86C10.67 13.87 10.32 13.87 9.97 13.86ZM7.97 13.73C7.2 13.65 6.44 13.53 5.69 13.37C5.61 13.72 5.56 14.06 5.52 14.38C5.33 15.97 5.59 16.93 6 17.16C6.4 17.39 7.36 17.14 8.64 16.19C8.9 15.99 9.17 15.77 9.43 15.53C8.91 14.96 8.43 14.36 7.97 13.73ZM15.3 13.37C14.59 13.53 13.82 13.65 13.02 13.73C12.56 14.36 12.08 14.96 11.56 15.53C11.82 15.77 12.09 15.99 12.35 16.19C13.63 17.14 14.59 17.39 15 17.16C15.4 16.93 15.66 15.97 15.47 14.38C15.43 14.04 15.38 13.7 15.3 13.37L15.3 13.37ZM16.75 12.98C17.33 15.62 17.03 17.72 15.75 18.46C14.46 19.2 12.49 18.41 10.5 16.59C8.5 18.41 6.53 19.2 5.25 18.46C3.96 17.72 3.66 15.62 4.24 12.98C1.66 12.16 0 10.85 0 9.37C0 7.89 1.66 6.57 4.24 5.75C3.66 3.11 3.96 1.01 5.25 0.27C6.53 -0.47 8.5 0.32 10.5 2.14C12.49 0.32 14.46 -0.47 15.75 0.27C17.03 1.01 17.33 3.11 16.75 5.75C19.33 6.57 21 7.89 21 9.37C21 10.85 19.33 12.16 16.75 12.98L16.75 12.98ZM9.43 3.2C9.18 2.97 8.91 2.75 8.64 2.55C7.36 1.59 6.4 1.34 6 1.57C5.59 1.8 5.33 2.77 5.52 4.35C5.56 4.68 5.61 5.01 5.69 5.36C6.44 5.2 7.2 5.08 7.97 5C8.45 4.34 8.94 3.74 9.43 3.2L9.43 3.2ZM13.02 5C13.82 5.08 14.59 5.21 15.3 5.36C15.38 5.01 15.43 4.67 15.47 4.35C15.66 2.77 15.4 1.8 15 1.57C14.59 1.34 13.63 1.59 12.35 2.55C12.08 2.75 11.81 2.97 11.56 3.2C12.05 3.74 12.54 4.34 13.02 5ZM11.02 4.87C10.85 4.66 10.67 4.46 10.5 4.26C10.32 4.46 10.14 4.66 9.97 4.87C10.32 4.86 10.67 4.86 11.02 4.87ZM6.87 12.07C6.68 11.77 6.51 11.46 6.34 11.16C6.24 11.41 6.16 11.67 6.08 11.92C6.33 11.97 6.6 12.02 6.87 12.07L6.87 12.07ZM8.8 12.3C9.93 12.39 11.06 12.39 12.19 12.3C12.83 11.37 13.4 10.39 13.89 9.37C13.4 8.35 12.83 7.36 12.19 6.43C11.06 6.34 9.93 6.34 8.8 6.43C8.16 7.36 7.59 8.35 7.1 9.37C7.59 10.39 8.16 11.37 8.8 12.3ZM14.65 7.58C14.75 7.32 14.83 7.07 14.91 6.81C14.65 6.76 14.39 6.71 14.12 6.66C14.31 6.96 14.48 7.27 14.65 7.58ZM4.62 7.2C4.29 7.31 3.96 7.43 3.66 7.56C2.2 8.19 1.5 8.9 1.5 9.37C1.5 9.83 2.19 10.54 3.66 11.17C3.96 11.3 4.29 11.42 4.62 11.53C4.85 10.83 5.12 10.1 5.45 9.37C5.13 8.66 4.86 7.94 4.62 7.2ZM6.08 6.81C6.16 7.06 6.24 7.32 6.34 7.57C6.51 7.27 6.68 6.96 6.87 6.66C6.6 6.71 6.33 6.76 6.08 6.81L6.08 6.81ZM16.37 11.53C16.7 11.42 17.03 11.3 17.33 11.17C18.79 10.54 19.5 9.83 19.5 9.37C19.5 8.9 18.79 8.19 17.33 7.56C17.01 7.43 16.69 7.31 16.37 7.2C16.14 7.9 15.87 8.63 15.54 9.37C15.87 10.1 16.14 10.83 16.37 11.53ZM14.91 11.92C14.83 11.67 14.75 11.41 14.65 11.16C14.48 11.46 14.31 11.77 14.12 12.07C14.39 12.02 14.66 11.97 14.91 11.92L14.91 11.92Z" fill="#607B96" fill-opacity="1.000000" fill-rule="nonzero"/>
</svg>
