<svg width="22.000000" height="16.000000" viewBox="0 0 22 16" fill="none" xmlns="http://www.w3.org/2000/svg" xmlns:xlink="http://www.w3.org/1999/xlink">
	<desc>
			Created with Pixso.
	</desc>
	<defs/>
	<path id="Vector" d="M16 0C17.59 0 19.11 0.63 20.24 1.75C21.36 2.88 22 4.4 22 6L22 10C22 11.59 21.36 13.11 20.24 14.24C19.11 15.36 17.59 16 16 16L6 16C4.4 16 2.88 15.36 1.75 14.24C0.63 13.11 0 11.59 0 10L0 6C0 4.4 0.63 2.88 1.75 1.75C2.88 0.63 4.4 0 6 0L16 0ZM9 5L7 5L7 7L5 7L5 9L6.99 9L7 11L9 11L8.99 9L11 9L11 7L9 7L9 5ZM17 9L15 9L15 11L17 11L17 9ZM15 5L13 5L13 7L15 7L15 5Z" fill="#607B96" fill-opacity="1.000000" fill-rule="nonzero"/>
</svg>
