<svg width="28.000000" height="28.000000" viewBox="0 0 28 28" fill="none" xmlns="http://www.w3.org/2000/svg" xmlns:xlink="http://www.w3.org/1999/xlink">
	<desc>
			Created with Pixso.
	</desc>
	<defs>
		<clipPath id="clip33_148">
			<rect id="Technologies logos" rx="-0.500000" width="19.441759" height="19.441759" transform="translate(4.279114 4.279114)" fill="white" fill-opacity="0"/>
		</clipPath>
	</defs>
	<rect id="Property 1=HTML" rx="-0.500000" width="27.000000" height="27.000000" transform="translate(0.500000 0.500000)" fill="#FFFFFF" fill-opacity="0"/>
	<rect id="Rectangle 50" rx="2.000000" width="28.000000" height="28.000000" fill="#FFA67E" fill-opacity="1.000000"/>
	<rect id="Technologies logos" rx="-0.500000" width="19.441759" height="19.441759" transform="translate(4.279114 4.279114)" fill="#FFFFFF" fill-opacity="0"/>
	<g clip-path="url(#clip33_148)">
		<path id="Vector" d="M14 19.26L17.93 18.19L18.46 12.41L11.46 12.41L11.29 10.49L18.64 10.49L18.83 8.61L9.16 8.61L9.7 14.3L16.36 14.3L16.14 16.74L14 17.31L11.85 16.74L11.71 15.17L9.78 15.17L10.06 18.19L14 19.26ZM6.33 5.48L21.66 5.48L20.28 20.81L14 22.51L7.71 20.81L6.33 5.48Z" fill="#011221" fill-opacity="1.000000" fill-rule="nonzero"/>
	</g>
</svg>
