<svg width="28.000000" height="28.000000" viewBox="0 0 28 28" fill="none" xmlns="http://www.w3.org/2000/svg" xmlns:xlink="http://www.w3.org/1999/xlink">
	<desc>
			Created with Pixso.
	</desc>
	<defs>
		<clipPath id="clip33_137">
			<rect id="Technologies logos" rx="-0.500000" width="19.441759" height="19.441759" transform="translate(4.279114 4.279121)" fill="white" fill-opacity="0"/>
		</clipPath>
	</defs>
	<rect id="Property 1=React" rx="-0.500000" width="27.000000" height="27.000000" transform="translate(0.500000 0.500000)" fill="#FFFFFF" fill-opacity="0"/>
	<rect id="Rectangle 50" rx="2.000000" width="28.000000" height="28.000000" fill="#86E1F9" fill-opacity="1.000000"/>
	<rect id="Technologies logos" rx="-0.500000" width="19.441759" height="19.441759" transform="translate(4.279114 4.279121)" fill="#FFFFFF" fill-opacity="0"/>
	<g clip-path="url(#clip33_137)">
		<path id="Vector" d="M14 15.27C13.66 15.27 13.33 15.14 13.09 14.9C12.85 14.66 12.72 14.33 12.72 14C12.72 13.66 12.85 13.33 13.09 13.09C13.33 12.85 13.66 12.72 14 12.72C14.33 12.72 14.66 12.85 14.9 13.09C15.14 13.33 15.27 13.66 15.27 14C15.27 14.33 15.14 14.66 14.9 14.9C14.66 15.14 14.33 15.27 14 15.27ZM13.55 17.82C13.69 18 13.84 18.18 14 18.34C14.15 18.18 14.3 18 14.44 17.82C14.14 17.83 13.85 17.83 13.55 17.82ZM11.85 17.72C11.19 17.65 10.54 17.54 9.9 17.4C9.84 17.7 9.79 17.99 9.76 18.27C9.59 19.62 9.82 20.44 10.16 20.63C10.51 20.83 11.33 20.62 12.42 19.8C12.64 19.64 12.86 19.45 13.09 19.25C12.65 18.76 12.23 18.25 11.85 17.72ZM18.09 17.4C17.48 17.54 16.83 17.64 16.14 17.72C15.76 18.25 15.34 18.76 14.9 19.25C15.13 19.45 15.35 19.64 15.58 19.8C16.66 20.62 17.48 20.83 17.83 20.63C18.17 20.44 18.4 19.62 18.24 18.27C18.2 17.98 18.15 17.69 18.09 17.4L18.09 17.4ZM19.33 17.07C19.82 19.32 19.56 21.11 18.47 21.74C17.37 22.37 15.7 21.7 14 20.15C12.29 21.7 10.62 22.37 9.52 21.74C8.43 21.11 8.17 19.32 8.66 17.07C6.47 16.37 5.05 15.26 5.05 14C5.05 12.73 6.47 11.62 8.66 10.92C8.17 8.67 8.43 6.88 9.52 6.25C10.62 5.62 12.29 6.29 14 7.84C15.7 6.29 17.37 5.62 18.47 6.25C19.56 6.88 19.82 8.67 19.33 10.92C21.52 11.62 22.94 12.73 22.94 14C22.94 15.26 21.52 16.37 19.33 17.07L19.33 17.07ZM13.09 8.74C12.87 8.55 12.65 8.36 12.42 8.19C11.33 7.37 10.51 7.16 10.16 7.36C9.82 7.55 9.59 8.37 9.75 9.72C9.79 10 9.84 10.29 9.9 10.59C10.54 10.45 11.19 10.34 11.85 10.27C12.25 9.72 12.67 9.21 13.09 8.74L13.09 8.74ZM16.14 10.27C16.83 10.35 17.48 10.45 18.09 10.59C18.15 10.29 18.2 10 18.23 9.72C18.4 8.37 18.17 7.55 17.83 7.36C17.48 7.16 16.66 7.37 15.58 8.19C15.34 8.36 15.12 8.55 14.9 8.74C15.32 9.21 15.74 9.72 16.14 10.27ZM14.44 10.17C14.3 9.99 14.15 9.81 14 9.65C13.84 9.81 13.69 9.99 13.55 10.17C13.85 10.16 14.14 10.16 14.44 10.17ZM10.9 16.3C10.75 16.04 10.6 15.78 10.46 15.52C10.37 15.74 10.3 15.95 10.23 16.17C10.45 16.22 10.67 16.26 10.9 16.3L10.9 16.3ZM12.55 16.5C13.51 16.57 14.48 16.57 15.44 16.5C15.98 15.7 16.47 14.86 16.88 14C16.47 13.13 15.98 12.29 15.44 11.49C14.48 11.42 13.51 11.42 12.55 11.49C12.01 12.29 11.52 13.13 11.11 14C11.52 14.86 12.01 15.7 12.55 16.5ZM17.53 12.47C17.62 12.25 17.69 12.04 17.76 11.82C17.54 11.77 17.31 11.73 17.09 11.69C17.24 11.95 17.39 12.21 17.53 12.47ZM9 12.15C8.71 12.25 8.43 12.35 8.17 12.46C6.93 12.99 6.33 13.6 6.33 14C6.33 14.39 6.93 15 8.17 15.53C8.43 15.64 8.71 15.74 9 15.84C9.18 15.24 9.42 14.62 9.7 14C9.43 13.39 9.19 12.78 9 12.15ZM10.23 11.82C10.3 12.04 10.37 12.25 10.46 12.47C10.6 12.21 10.75 11.95 10.9 11.69C10.67 11.73 10.45 11.77 10.23 11.82L10.23 11.82ZM18.99 15.84C19.28 15.74 19.56 15.64 19.82 15.53C21.06 15 21.66 14.39 21.66 14C21.66 13.6 21.06 12.99 19.82 12.46C19.55 12.34 19.27 12.24 18.99 12.15C18.81 12.75 18.57 13.37 18.29 14C18.57 14.62 18.81 15.24 18.99 15.84ZM17.76 16.17C17.69 15.95 17.62 15.74 17.53 15.52C17.39 15.78 17.24 16.04 17.09 16.3C17.32 16.26 17.54 16.22 17.76 16.17L17.76 16.17Z" fill="#011221" fill-opacity="1.000000" fill-rule="nonzero"/>
	</g>
</svg>
